<?xml version="1.0" encoding="utf-8"?>
<!-- Generator: Adobe Illustrator 16.0.0, SVG Export Plug-In . SVG Version: 6.00 Build 0)  -->
<!DOCTYPE svg PUBLIC "-//W3C//DTD SVG 1.1//EN" "http://www.w3.org/Graphics/SVG/1.1/DTD/svg11.dtd">
<svg version="1.1" id="Camada_1" xmlns="http://www.w3.org/2000/svg" xmlns:xlink="http://www.w3.org/1999/xlink" x="0px" y="0px"
	 width="150px" height="150px" viewBox="0 0 150 150" enable-background="new 0 0 150 150" xml:space="preserve">
<g>
	<path d="M123.848,17.521H26.023c-4.674,0-8.468,3.706-8.468,8.278v98.233c0,4.57,3.801,8.282,8.468,8.282h97.825
		c4.679,0,8.489-3.712,8.489-8.282V25.799C132.351,21.227,128.526,17.521,123.848,17.521z"/>
	<path fill="#FFFFFF" d="M34.555,60.561h17.043v54.785H34.555V60.561z M43.094,33.328c5.436,0,9.862,4.434,9.862,9.877
		c0,5.451-4.426,9.869-9.862,9.869c-5.472,0-9.884-4.425-9.884-9.876C33.21,37.754,37.622,33.328,43.094,33.328"/>
	<path fill="#FFFFFF" d="M62.289,60.561h16.315v7.486h0.24c2.27-4.31,7.819-8.846,16.106-8.846c17.246,0,20.43,11.339,20.43,26.092
		v30.045H98.357V88.693c0-6.357-0.108-14.527-8.851-14.527c-8.853,0-10.213,6.927-10.213,14.062v27.102H62.289V60.561z"/>
</g>
</svg>
