<?xml version="1.0" encoding="utf-8"?>
<!-- Generator: Adobe Illustrator 16.0.0, SVG Export Plug-In . SVG Version: 6.00 Build 0)  -->
<!DOCTYPE svg PUBLIC "-//W3C//DTD SVG 1.1//EN" "http://www.w3.org/Graphics/SVG/1.1/DTD/svg11.dtd">
<svg version="1.1" id="brand-altoqi" xmlns="http://www.w3.org/2000/svg" xmlns:xlink="http://www.w3.org/1999/xlink" x="0px"
	 y="0px" width="442px" height="57.667px" viewBox="0 0 442 57.667" enable-background="new 0 0 442 57.667" xml:space="preserve">
<g>
	<g id="Brand">
		<g id="simbol">
			<polygon fill="#6EAA77" points="20.595,3.019 41.189,38.668 34.326,50.556 13.729,14.906 			"/>
			<polygon fill="#5A656C" points="0,38.668 11.464,18.831 18.312,30.752 6.865,50.556 			"/>
		</g>
		<g id="brand-name">
			<path fill="#5C656E" d="M110.09,28.752c-5.77,0-9.041,3.483-9.041,7.916v6.439c0,4.434,3.271,7.916,9.041,7.916
				c5.896,0,8.984-3.534,8.984-7.916v-6.439C119.074,32.286,115.988,28.752,110.09,28.752z M110.083,48.473
				c-5.542,0-5.21-3.688-5.21-8.53c0-4.871-0.332-8.64,5.21-8.64c5.543,0,5.168,3.77,5.168,8.64S115.627,48.473,110.083,48.473z"/>
			<path fill="#5C656E" d="M75.744,50.605h-4.479l-3.283-8.738H55.652l-3.237,8.738h-4.258L59.6,21.821h4.967L75.744,50.605z
				 M66.918,38.896L62.04,25.901h-0.399l-4.879,12.995H66.918L66.918,38.896z"/>
			<path fill="#5C656E" d="M82.813,50.616H78.82V21.833h3.992V50.616z"/>
			<path fill="#5C656E" d="M98.843,51.06c-3.735,0.13-5.854-0.466-6.919-1.397s-1.596-2.697-1.596-5.3v-13.04h-4.475v-2.617h4.475
				v-6.875h4.035v6.875h4.479v2.617h-4.479v13.262c0,1.537,0.295,2.564,0.887,3.082c0.592,0.519,1.789,0.776,3.594,0.776
				L98.843,51.06L98.843,51.06z"/>
			<path fill="#5C656E" d="M154.848,26h-3.991v-4.168h3.991V26z M154.848,50.616h-3.991V28.752h3.991V50.616z"/>
			<path fill="#5C656E" d="M145.547,41.331v-9.859c0-5.773-3.865-9.74-11.246-9.74c-7.221,0-11.317,3.898-11.317,9.74v9.859
				c0,5.844,4.097,9.741,11.317,9.741c2.239,0,4.152-0.364,5.734-1.036l2.761,2.762l2.176-2.187l-2.262-2.263
				C144.587,46.637,145.547,44.208,145.547,41.331z M136.475,42.112l-2.174,2.188l3.486,3.488c-0.918,0.329-2.063,0.506-3.493,0.506
				c-7.68,0-7.22-5.106-7.22-11.816c0-6.749-0.46-11.969,7.22-11.969s7.159,5.22,7.159,11.969c0,3.933,0.174,7.293-1.199,9.415
				L136.475,42.112z"/>
		</g>
	</g>
	<g id="tagline">
		<path fill="#5C656E" d="M183.238,31.967h-2.943v-1.066h7.215v1.066h-3.044v9.972h-1.227L183.238,31.967L183.238,31.967z"/>
		<path fill="#5C656E" d="M195.929,41.484c-0.996,0.399-2.095,0.601-3.297,0.601c-0.697,0-1.29-0.072-1.775-0.217
			c-0.774-0.222-1.289-0.679-1.544-1.371c-0.235-0.649-0.354-1.611-0.354-2.887v-0.368c0-1.524,0.316-2.595,0.953-3.21
			c0.571-0.548,1.526-0.822,2.863-0.822c1.305,0,2.194,0.321,2.67,0.967c0.231,0.313,0.385,0.691,0.458,1.137
			c0.075,0.445,0.112,0.87,0.112,1.273c0,0.629-0.015,1.119-0.043,1.465c-0.678,0.027-1.287,0.043-1.825,0.043h-1.162
			c-1.213,0-2.145-0.053-2.8-0.158c0,1.105,0.139,1.878,0.418,2.316c0.342,0.533,1.022,0.799,2.042,0.799
			c1.021,0,1.997-0.197,2.93-0.598L195.929,41.484z M194.796,37.09v-0.691c0-0.756-0.146-1.294-0.44-1.616
			c-0.327-0.36-0.893-0.541-1.694-0.541c-0.961,0-1.619,0.209-1.971,0.628c-0.336,0.398-0.505,1.141-0.505,2.223h4.61V37.09z"/>
		<path fill="#5C656E" d="M205.012,41.558c-0.668,0.351-1.584,0.526-2.749,0.526c-0.688,0-1.193-0.055-1.515-0.158
			c-0.823-0.279-1.361-0.754-1.616-1.422c-0.178-0.467-0.281-0.969-0.312-1.508c-0.028-0.539-0.042-0.994-0.042-1.363
			c0-0.371,0.01-0.732,0.028-1.086c0.021-0.354,0.066-0.693,0.141-1.021c0.075-0.327,0.189-0.632,0.344-0.913
			c0.153-0.28,0.362-0.528,0.627-0.739c0.573-0.442,1.395-0.664,2.468-0.664c0.789,0,1.515,0.115,2.179,0.347
			c0.179,0.058,0.313,0.112,0.404,0.166l-0.361,1.067c-0.924-0.356-1.68-0.533-2.269-0.533s-1.022,0.066-1.298,0.201
			c-0.277,0.135-0.492,0.338-0.646,0.613c-0.26,0.471-0.39,1.337-0.39,2.598c0,0.504,0.017,0.965,0.051,1.383
			c0.034,0.414,0.118,0.771,0.253,1.07c0.284,0.614,0.869,0.924,1.757,0.924s1.75-0.154,2.587-0.463L205.012,41.558z"/>
		<path fill="#5C656E" d="M211.736,34.334c-0.938,0-1.893,0.276-2.864,0.83v6.773h-1.197v-8.585h1.053l0.115,0.888
			c0.524-0.428,1.176-0.732,1.955-0.916c0.317-0.076,0.69-0.115,1.119-0.115c0.428,0,0.806,0.049,1.132,0.147
			c0.328,0.101,0.587,0.256,0.78,0.474c0.351,0.389,0.525,1.1,0.525,2.127v5.98h-1.212v-5.756c0-0.693-0.066-1.139-0.202-1.34
			c-0.135-0.199-0.295-0.334-0.479-0.403S212.035,34.334,211.736,34.334z"/>
		<path fill="#5C656E" d="M217.263,37.668c0-1.092,0.055-1.854,0.166-2.287c0.111-0.434,0.246-0.775,0.408-1.028
			c0.161-0.252,0.379-0.462,0.653-0.631c0.549-0.343,1.358-0.513,2.432-0.513c1.549,0,2.545,0.383,2.986,1.147
			c0.266,0.462,0.417,1.112,0.455,1.955c0.015,0.397,0.021,0.839,0.021,1.319s-0.016,0.93-0.046,1.347
			c-0.032,0.416-0.093,0.789-0.186,1.122c-0.092,0.331-0.219,0.621-0.382,0.869c-0.163,0.246-0.38,0.455-0.648,0.623
			c-0.529,0.328-1.302,0.49-2.316,0.49c-1.52,0-2.518-0.373-2.994-1.125c-0.293-0.466-0.465-1.121-0.513-1.963
			C217.275,38.592,217.263,38.148,217.263,37.668z M219.226,40.678c0.174,0.129,0.392,0.227,0.653,0.291
			c0.263,0.064,0.621,0.098,1.076,0.098c0.454,0,0.837-0.064,1.146-0.193c0.311-0.131,0.543-0.34,0.699-0.625
			s0.255-0.658,0.296-1.115c0.04-0.457,0.063-0.988,0.063-1.594c0-0.606-0.019-1.111-0.056-1.517
			c-0.035-0.403-0.126-0.737-0.271-1.002c-0.288-0.521-0.932-0.779-1.927-0.779c-1.053,0-1.738,0.259-2.057,0.779
			c-0.158,0.265-0.259,0.601-0.302,1.01c-0.044,0.408-0.066,0.854-0.066,1.334c0,0.481,0.007,0.89,0.02,1.224
			c0.011,0.336,0.043,0.637,0.094,0.902s0.125,0.498,0.224,0.695S219.052,40.547,219.226,40.678z"/>
		<path fill="#5C656E" d="M227.609,29.674h1.19v12.265h-1.19V29.674z"/>
		<path fill="#5C656E" d="M290.35,29.674h1.19v12.265h-1.19V29.674z"/>
		<path fill="#5C656E" d="M232.024,37.668c0-1.092,0.057-1.854,0.166-2.287c0.111-0.434,0.247-0.775,0.408-1.028
			c0.161-0.252,0.379-0.462,0.652-0.631c0.549-0.343,1.358-0.513,2.432-0.513c1.549,0,2.545,0.383,2.987,1.147
			c0.265,0.462,0.416,1.112,0.454,1.955c0.015,0.397,0.021,0.839,0.021,1.319s-0.016,0.93-0.047,1.347
			c-0.031,0.416-0.093,0.789-0.183,1.122c-0.092,0.331-0.22,0.621-0.383,0.869c-0.164,0.246-0.381,0.455-0.649,0.623
			c-0.529,0.328-1.301,0.49-2.315,0.49c-1.521,0-2.519-0.373-2.994-1.125c-0.294-0.466-0.465-1.121-0.514-1.963
			C232.037,38.592,232.024,38.148,232.024,37.668z M233.988,40.678c0.172,0.129,0.391,0.227,0.651,0.291
			c0.263,0.064,0.621,0.098,1.075,0.098c0.455,0,0.838-0.064,1.146-0.193c0.313-0.131,0.545-0.34,0.7-0.625
			c0.156-0.285,0.255-0.658,0.296-1.115s0.063-0.988,0.063-1.594c0-0.606-0.02-1.111-0.055-1.517
			c-0.036-0.403-0.126-0.737-0.271-1.002c-0.288-0.521-0.931-0.779-1.926-0.779c-1.055,0-1.739,0.259-2.058,0.779
			c-0.158,0.265-0.26,0.601-0.303,1.01c-0.044,0.408-0.064,0.854-0.064,1.334c0,0.481,0.006,0.89,0.018,1.224
			c0.013,0.336,0.044,0.637,0.095,0.902c0.051,0.268,0.124,0.498,0.225,0.695C233.679,40.383,233.813,40.547,233.988,40.678z"/>
		<path fill="#5C656E" d="M247.638,33.945l0.115-0.592h1.039l0.007,8.428c0,1.236-0.242,2.136-0.729,2.698
			c-0.52,0.597-1.397,0.895-2.634,0.895c-0.962,0-1.814-0.129-2.562-0.39c-0.188-0.063-0.331-0.12-0.434-0.173l0.375-1.018
			c0.087,0.028,0.215,0.076,0.383,0.14c0.169,0.065,0.37,0.13,0.605,0.192c0.597,0.158,1.145,0.236,1.643,0.236
			s0.882-0.05,1.149-0.15c0.271-0.102,0.479-0.258,0.629-0.47c0.25-0.354,0.375-1.003,0.375-1.94v-0.686
			c-0.919,0.645-1.891,0.967-2.915,0.967c-1.197,0-1.996-0.426-2.396-1.276c-0.231-0.481-0.365-1.089-0.404-1.825
			c-0.015-0.337-0.021-0.709-0.021-1.115c0-0.404,0.004-0.816,0.011-1.229c0.008-0.414,0.037-0.797,0.091-1.147
			c0.052-0.351,0.136-0.667,0.249-0.948c0.112-0.28,0.274-0.521,0.486-0.718c0.438-0.409,1.112-0.614,2.022-0.614
			C245.639,33.209,246.608,33.456,247.638,33.945z M247.602,34.941c-0.866-0.433-1.703-0.649-2.511-0.649
			c-0.587,0-0.975,0.049-1.162,0.146c-0.187,0.096-0.33,0.221-0.43,0.375c-0.099,0.153-0.18,0.364-0.241,0.635
			c-0.11,0.505-0.166,1.337-0.166,2.495v0.159c0,1.067,0.133,1.815,0.396,2.244c0.266,0.438,0.748,0.655,1.45,0.655h0.109
			c0.663,0,1.342-0.183,2.034-0.547c0.196-0.103,0.37-0.205,0.52-0.312L247.602,34.941L247.602,34.941z"/>
		<g>
			<path fill="#5C656E" d="M252.224,33.354h1.19v8.585h-1.19V33.354z"/>
			<path fill="#5C656E" d="M252.227,30.9h1.185v1.263h-1.185V30.9z"/>
		</g>
		<g>
			<path fill="#5C656E" d="M295.273,33.354h1.191v8.585h-1.191V33.354z"/>
			<path fill="#5C656E" d="M295.277,30.9h1.184v1.263h-1.184V30.9z"/>
		</g>
		<g>
			<path fill="#5C656E" d="M430.618,33.354h1.189v8.585h-1.189V33.354z"/>
			<path fill="#5C656E" d="M430.621,30.9h1.184v1.263h-1.184V30.9z"/>
		</g>
		<path fill="#5C656E" d="M263.452,38.895c0,0.957,0.046,1.953,0.138,2.986l-1.068,0.086l-0.18-1.002
			c-0.61,0.49-1.419,0.832-2.424,1.023c-0.327,0.063-0.618,0.094-0.874,0.094c-0.254,0-0.479-0.012-0.674-0.035
			c-0.195-0.023-0.383-0.07-0.563-0.141s-0.349-0.167-0.501-0.293c-0.155-0.125-0.289-0.291-0.405-0.498
			c-0.244-0.437-0.366-0.963-0.366-1.576s0.044-1.09,0.133-1.429c0.09-0.34,0.236-0.622,0.443-0.848
			c0.409-0.447,1.098-0.671,2.063-0.671s1.998,0.183,3.095,0.549v-0.938c0-1.043-0.431-1.662-1.291-1.854
			c-0.278-0.063-0.6-0.095-0.96-0.095c-0.822,0-1.676,0.162-2.562,0.49l-0.268-1.039c0.245-0.162,0.87-0.311,1.875-0.438
			c0.318-0.039,0.699-0.06,1.146-0.06c0.443,0,0.881,0.053,1.31,0.159c0.428,0.106,0.784,0.279,1.067,0.521
			c0.577,0.477,0.864,1.248,0.864,2.314v2.693H263.452z M262.241,38.043c-1.128-0.285-2.164-0.427-3.117-0.427
			c-0.587,0-0.978,0.169-1.169,0.507c-0.13,0.234-0.195,0.584-0.195,1.045c0,0.463,0.026,0.797,0.076,1.004
			c0.052,0.207,0.133,0.377,0.249,0.513c0.227,0.255,0.599,0.383,1.118,0.383c0.813,0,1.617-0.21,2.417-0.628
			c0.245-0.125,0.467-0.266,0.664-0.419C262.255,39.502,262.241,38.842,262.241,38.043z"/>
		<path fill="#5C656E" d="M276.98,38.895c0,0.957,0.046,1.953,0.139,2.986l-1.068,0.086l-0.181-1.002
			c-0.61,0.49-1.418,0.832-2.425,1.023c-0.326,0.063-0.616,0.094-0.873,0.094c-0.255,0-0.479-0.012-0.675-0.035
			c-0.193-0.023-0.382-0.07-0.562-0.141c-0.182-0.07-0.35-0.167-0.502-0.293c-0.155-0.125-0.289-0.291-0.404-0.498
			c-0.245-0.437-0.368-0.963-0.368-1.576s0.045-1.09,0.134-1.429c0.09-0.34,0.236-0.622,0.444-0.848
			c0.409-0.447,1.096-0.671,2.063-0.671c0.967,0,1.998,0.183,3.096,0.549v-0.938c0-1.043-0.432-1.662-1.292-1.854
			c-0.279-0.063-0.599-0.095-0.96-0.095c-0.821,0-1.677,0.162-2.562,0.49l-0.268-1.039c0.245-0.162,0.871-0.311,1.876-0.438
			c0.317-0.039,0.698-0.06,1.144-0.06c0.446,0,0.883,0.053,1.311,0.159s0.785,0.279,1.067,0.521
			c0.577,0.477,0.865,1.248,0.865,2.314V38.895L276.98,38.895z M275.769,38.043c-1.126-0.285-2.165-0.427-3.117-0.427
			c-0.586,0-0.976,0.169-1.168,0.507c-0.131,0.234-0.194,0.584-0.194,1.045c0,0.463,0.024,0.797,0.076,1.004
			c0.05,0.207,0.133,0.377,0.248,0.513c0.228,0.255,0.6,0.383,1.118,0.383c0.813,0,1.619-0.21,2.416-0.628
			c0.246-0.125,0.469-0.266,0.664-0.419C275.783,39.502,275.769,38.842,275.769,38.043z"/>
		<path fill="#5C656E" d="M281.403,41.426v3.797h-1.195V33.354h0.974l0.136,0.888c0.564-0.423,1.298-0.733,2.201-0.931
			c0.328-0.066,0.684-0.102,1.067-0.102s0.726,0.051,1.021,0.151c0.296,0.101,0.539,0.241,0.732,0.422
			c0.192,0.181,0.342,0.396,0.447,0.646c0.105,0.249,0.186,0.521,0.236,0.813c0.067,0.404,0.103,1.049,0.103,1.934v0.166
			c0,1.125-0.038,1.904-0.115,2.339c-0.077,0.434-0.178,0.79-0.303,1.069c-0.125,0.282-0.299,0.521-0.521,0.72
			c-0.458,0.409-1.165,0.612-2.121,0.612C283.109,42.084,282.221,41.865,281.403,41.426z M281.403,40.44
			c0.817,0.374,1.678,0.563,2.576,0.563c0.586,0,1.016-0.107,1.284-0.323c0.365-0.3,0.569-0.993,0.612-2.087
			c0.015-0.359,0.021-0.773,0.021-1.239v-0.159c0-1.105-0.096-1.847-0.288-2.223c-0.216-0.428-0.663-0.643-1.342-0.643h-0.107
			c-0.707,0-1.441,0.176-2.2,0.526c-0.223,0.103-0.407,0.204-0.558,0.312L281.403,40.44L281.403,40.44z"/>
		<path fill="#5C656E" d="M305.912,41.558c-0.668,0.351-1.585,0.526-2.748,0.526c-0.688,0-1.193-0.055-1.517-0.158
			c-0.822-0.279-1.36-0.754-1.616-1.422c-0.178-0.467-0.28-0.969-0.31-1.508c-0.03-0.539-0.044-0.994-0.044-1.363
			c0-0.371,0.009-0.732,0.029-1.086c0.019-0.354,0.064-0.693,0.14-1.021c0.075-0.327,0.188-0.632,0.344-0.913
			c0.154-0.28,0.362-0.528,0.626-0.739c0.573-0.442,1.396-0.664,2.47-0.664c0.788,0,1.516,0.115,2.179,0.347
			c0.178,0.058,0.313,0.112,0.404,0.166l-0.361,1.067c-0.923-0.356-1.68-0.533-2.27-0.533c-0.589,0-1.021,0.066-1.299,0.201
			c-0.274,0.135-0.491,0.338-0.645,0.613c-0.26,0.471-0.392,1.337-0.392,2.598c0,0.504,0.019,0.965,0.052,1.383
			c0.033,0.414,0.119,0.771,0.253,1.07c0.284,0.614,0.869,0.924,1.757,0.924s1.749-0.154,2.587-0.463L305.912,41.558z"/>
		<path fill="#5C656E" d="M315.147,38.895c0,0.957,0.046,1.953,0.138,2.986l-1.067,0.086l-0.181-1.002
			c-0.611,0.49-1.418,0.832-2.426,1.023c-0.325,0.063-0.617,0.094-0.871,0.094c-0.256,0-0.479-0.012-0.676-0.035
			c-0.193-0.023-0.383-0.07-0.563-0.141c-0.182-0.07-0.349-0.167-0.502-0.293c-0.153-0.125-0.288-0.291-0.404-0.498
			c-0.244-0.437-0.368-0.963-0.368-1.576s0.045-1.09,0.136-1.429c0.088-0.34,0.235-0.622,0.441-0.848
			c0.409-0.447,1.098-0.671,2.063-0.671c0.968,0,1.999,0.183,3.096,0.549v-0.938c0-1.043-0.431-1.662-1.292-1.854
			c-0.278-0.063-0.599-0.095-0.959-0.095c-0.823,0-1.677,0.162-2.561,0.49l-0.269-1.039c0.245-0.162,0.871-0.311,1.876-0.438
			c0.316-0.039,0.698-0.06,1.145-0.06c0.445,0,0.882,0.053,1.31,0.159s0.783,0.279,1.067,0.521c0.576,0.477,0.865,1.248,0.865,2.314
			L315.147,38.895L315.147,38.895z M313.935,38.043c-1.125-0.285-2.164-0.427-3.116-0.427c-0.586,0-0.977,0.169-1.169,0.507
			c-0.13,0.234-0.193,0.584-0.193,1.045c0,0.463,0.024,0.797,0.075,1.004s0.134,0.377,0.248,0.513
			c0.228,0.255,0.6,0.383,1.118,0.383c0.813,0,1.619-0.21,2.417-0.628c0.246-0.125,0.467-0.266,0.664-0.419
			C313.95,39.502,313.935,38.842,313.935,38.043z"/>
		<path fill="#5C656E" d="M323.993,40.98c-1.017,0.737-2.048,1.104-3.096,1.104c-1.159,0-1.932-0.427-2.315-1.277
			c-0.223-0.481-0.345-0.989-0.371-1.525c-0.026-0.537-0.04-1.008-0.04-1.415c0-0.405,0.004-0.815,0.011-1.229
			c0.007-0.414,0.037-0.798,0.091-1.147c0.054-0.351,0.136-0.667,0.248-0.947c0.112-0.281,0.275-0.521,0.487-0.719
			c0.438-0.408,1.16-0.613,2.168-0.613s1.918,0.176,2.731,0.526v-4.063h1.196v8.318c0,1.661,0.045,2.957,0.138,3.891l-1.074,0.086
			L323.993,40.98z M323.906,34.726c-0.865-0.289-1.702-0.435-2.512-0.435c-0.587,0-0.974,0.049-1.162,0.146
			c-0.188,0.096-0.33,0.221-0.429,0.375c-0.099,0.153-0.18,0.364-0.241,0.635c-0.11,0.505-0.167,1.337-0.167,2.496v0.159
			c0,1.082,0.118,1.83,0.354,2.243c0.256,0.438,0.729,0.657,1.421,0.657h0.107c0.665,0,1.371-0.213,2.121-0.636
			c0.207-0.114,0.386-0.231,0.535-0.347v-0.014c-0.024-0.448-0.037-1.14-0.037-2.071L323.906,34.726z"/>
		<path fill="#5C656E" d="M334.829,38.895c0,0.957,0.046,1.953,0.138,2.986l-1.067,0.086l-0.181-1.002
			c-0.61,0.49-1.419,0.832-2.425,1.023c-0.326,0.063-0.618,0.094-0.872,0.094c-0.256,0-0.48-0.012-0.676-0.035
			c-0.194-0.023-0.383-0.07-0.563-0.141c-0.18-0.07-0.347-0.167-0.501-0.293c-0.154-0.125-0.288-0.291-0.403-0.498
			c-0.245-0.437-0.368-0.963-0.368-1.576s0.044-1.09,0.135-1.429c0.088-0.34,0.236-0.622,0.442-0.848
			c0.408-0.447,1.098-0.671,2.063-0.671c0.967,0,1.999,0.183,3.096,0.549v-0.938c0-1.043-0.432-1.662-1.292-1.854
			c-0.277-0.063-0.599-0.095-0.959-0.095c-0.821,0-1.677,0.162-2.562,0.49l-0.268-1.039c0.244-0.162,0.87-0.311,1.875-0.438
			c0.318-0.039,0.699-0.06,1.145-0.06c0.444,0,0.881,0.053,1.311,0.159c0.428,0.106,0.784,0.279,1.067,0.521
			c0.577,0.477,0.865,1.248,0.865,2.314V38.895L334.829,38.895z M333.618,38.043c-1.126-0.285-2.165-0.427-3.117-0.427
			c-0.587,0-0.978,0.169-1.169,0.507c-0.13,0.234-0.195,0.584-0.195,1.045c0,0.463,0.025,0.797,0.076,1.004s0.134,0.377,0.249,0.513
			c0.227,0.255,0.6,0.383,1.118,0.383c0.813,0,1.619-0.21,2.417-0.628c0.246-0.125,0.466-0.266,0.664-0.419
			C333.633,39.502,333.618,38.842,333.618,38.043z"/>
		<path fill="#5C656E" d="M348.357,38.895c0,0.957,0.047,1.953,0.139,2.986l-1.068,0.086l-0.18-1.002
			c-0.611,0.49-1.42,0.832-2.425,1.023c-0.327,0.063-0.617,0.094-0.873,0.094c-0.255,0-0.479-0.012-0.676-0.035
			c-0.194-0.023-0.383-0.07-0.563-0.141c-0.181-0.07-0.349-0.167-0.502-0.293c-0.153-0.125-0.288-0.291-0.404-0.498
			c-0.244-0.437-0.367-0.963-0.367-1.576s0.044-1.09,0.134-1.429c0.09-0.34,0.237-0.622,0.444-0.848
			c0.408-0.447,1.097-0.671,2.063-0.671s1.999,0.183,3.095,0.549v-0.938c0-1.043-0.43-1.662-1.292-1.854
			c-0.278-0.063-0.598-0.095-0.96-0.095c-0.821,0-1.675,0.162-2.562,0.49l-0.267-1.039c0.245-0.162,0.87-0.311,1.875-0.438
			c0.317-0.039,0.699-0.06,1.146-0.06c0.443,0,0.881,0.053,1.309,0.159c0.429,0.106,0.784,0.279,1.069,0.521
			c0.575,0.477,0.863,1.248,0.863,2.314L348.357,38.895L348.357,38.895z M347.146,38.043c-1.125-0.285-2.164-0.427-3.117-0.427
			c-0.587,0-0.977,0.169-1.168,0.507c-0.131,0.234-0.194,0.584-0.194,1.045c0,0.463,0.024,0.797,0.076,1.004
			c0.051,0.207,0.134,0.377,0.248,0.513c0.227,0.255,0.6,0.383,1.118,0.383c0.813,0,1.618-0.21,2.417-0.628
			c0.245-0.125,0.467-0.266,0.663-0.419C347.159,39.502,347.146,38.842,347.146,38.043z M343.228,29.574l0.902-0.903l2.346,2.547
			l-0.6,0.628L343.228,29.574z"/>
		<path fill="#5C656E" d="M362.037,41.484c-0.996,0.399-2.096,0.601-3.299,0.601c-0.696,0-1.288-0.072-1.774-0.217
			c-0.773-0.222-1.288-0.679-1.542-1.371c-0.236-0.649-0.354-1.611-0.354-2.887v-0.368c0-1.524,0.317-2.595,0.952-3.21
			c0.573-0.548,1.527-0.822,2.864-0.822c1.304,0,2.193,0.321,2.67,0.967c0.231,0.313,0.383,0.691,0.458,1.137
			c0.074,0.445,0.111,0.87,0.111,1.273c0,0.629-0.016,1.119-0.043,1.465c-0.679,0.027-1.286,0.043-1.825,0.043h-1.161
			c-1.212,0-2.146-0.053-2.8-0.158c0,1.105,0.14,1.878,0.419,2.316c0.341,0.533,1.021,0.799,2.041,0.799s1.996-0.197,2.93-0.598
			L362.037,41.484z M360.904,37.09v-0.691c0-0.756-0.146-1.294-0.439-1.616c-0.327-0.36-0.893-0.541-1.695-0.541
			c-0.961,0-1.618,0.209-1.97,0.628c-0.336,0.398-0.505,1.141-0.505,2.223h4.609V37.09z"/>
		<path fill="#5C656E" d="M369.216,34.334c-0.938,0-1.894,0.276-2.864,0.83v6.773h-1.198v-8.585h1.056l0.115,0.888
			c0.522-0.428,1.176-0.732,1.954-0.916c0.316-0.076,0.689-0.115,1.118-0.115c0.428,0,0.807,0.049,1.133,0.147
			c0.327,0.101,0.588,0.256,0.779,0.474c0.353,0.389,0.526,1.1,0.526,2.127v5.98h-1.212v-5.756c0-0.693-0.067-1.139-0.202-1.34
			c-0.134-0.199-0.295-0.334-0.479-0.403C369.756,34.37,369.514,34.334,369.216,34.334z"/>
		<path fill="#5C656E" d="M380.521,33.945l0.115-0.592h1.039l0.007,8.428c0,1.236-0.242,2.136-0.729,2.698
			c-0.521,0.597-1.397,0.895-2.634,0.895c-0.962,0-1.815-0.129-2.562-0.39c-0.188-0.063-0.332-0.12-0.433-0.173l0.375-1.018
			c0.086,0.028,0.213,0.076,0.382,0.14c0.169,0.065,0.37,0.13,0.605,0.192c0.597,0.158,1.145,0.236,1.642,0.236
			c0.498,0,0.883-0.05,1.15-0.15c0.271-0.102,0.479-0.258,0.628-0.47c0.25-0.354,0.375-1.003,0.375-1.94v-0.686
			c-0.919,0.645-1.891,0.967-2.915,0.967c-1.196,0-1.996-0.426-2.396-1.276c-0.231-0.481-0.365-1.089-0.404-1.825
			c-0.014-0.337-0.021-0.709-0.021-1.115c0-0.404,0.003-0.816,0.011-1.229c0.006-0.414,0.037-0.797,0.09-1.147
			c0.054-0.35,0.136-0.667,0.249-0.948c0.112-0.28,0.275-0.521,0.487-0.718c0.437-0.409,1.111-0.614,2.022-0.614
			C378.521,33.209,379.492,33.456,380.521,33.945z M380.485,34.941c-0.865-0.433-1.701-0.649-2.51-0.649
			c-0.588,0-0.975,0.049-1.162,0.146c-0.188,0.096-0.331,0.221-0.43,0.375c-0.099,0.153-0.18,0.364-0.242,0.635
			c-0.109,0.505-0.166,1.337-0.166,2.495v0.159c0,1.067,0.133,1.815,0.396,2.244c0.266,0.438,0.749,0.655,1.45,0.655h0.108
			c0.663,0,1.342-0.183,2.033-0.547c0.198-0.103,0.372-0.205,0.521-0.312L380.485,34.941L380.485,34.941z"/>
		<path fill="#5C656E" d="M391.561,41.484c-0.995,0.399-2.095,0.601-3.298,0.601c-0.696,0-1.288-0.072-1.773-0.217
			c-0.773-0.222-1.288-0.679-1.544-1.371c-0.235-0.649-0.354-1.611-0.354-2.887v-0.368c0-1.524,0.318-2.595,0.952-3.21
			c0.573-0.548,1.528-0.822,2.864-0.822c1.304,0,2.192,0.321,2.67,0.967c0.229,0.313,0.383,0.691,0.458,1.137
			c0.073,0.445,0.11,0.87,0.11,1.273c0,0.629-0.014,1.119-0.043,1.465c-0.678,0.027-1.287,0.043-1.825,0.043h-1.161
			c-1.212,0-2.146-0.053-2.8-0.158c0,1.105,0.141,1.878,0.418,2.316c0.343,0.533,1.022,0.799,2.041,0.799
			c1.021,0,1.997-0.197,2.931-0.598L391.561,41.484z M390.428,37.09v-0.691c0-0.756-0.146-1.294-0.439-1.616
			c-0.327-0.36-0.894-0.541-1.695-0.541c-0.962,0-1.618,0.209-1.971,0.628c-0.337,0.398-0.506,1.141-0.506,2.223h4.611V37.09z"/>
		<path fill="#5C656E" d="M398.738,34.334c-0.938,0-1.893,0.276-2.864,0.83v6.773h-1.197v-8.585h1.054l0.116,0.888
			c0.523-0.428,1.176-0.732,1.955-0.916c0.316-0.076,0.69-0.115,1.118-0.115s0.805,0.049,1.132,0.147
			c0.327,0.101,0.588,0.256,0.78,0.474c0.351,0.389,0.525,1.1,0.525,2.127v5.98h-1.212v-5.756c0-0.693-0.065-1.139-0.202-1.34
			c-0.135-0.199-0.295-0.334-0.479-0.403C399.279,34.37,399.037,34.334,398.738,34.334z"/>
		<path fill="#5C656E" d="M408.572,34.329c-0.957,0-1.906,0.275-2.85,0.828v6.781h-1.198V29.674h1.169v4.566
			c0.495-0.423,1.141-0.729,1.935-0.916c0.317-0.076,0.692-0.115,1.125-0.115s0.813,0.049,1.141,0.147
			c0.327,0.101,0.587,0.256,0.778,0.474c0.347,0.389,0.52,1.1,0.52,2.127v5.98h-1.211v-5.764c0-0.693-0.066-1.139-0.201-1.34
			c-0.136-0.198-0.296-0.334-0.479-0.403C409.113,34.363,408.871,34.329,408.572,34.329z"/>
		<path fill="#5C656E" d="M420.932,38.895c0,0.957,0.046,1.953,0.138,2.986l-1.067,0.086l-0.18-1.002
			c-0.611,0.49-1.421,0.832-2.426,1.023c-0.327,0.063-0.617,0.094-0.873,0.094c-0.255,0-0.479-0.012-0.674-0.035
			s-0.383-0.07-0.563-0.141c-0.182-0.07-0.349-0.167-0.501-0.293c-0.154-0.125-0.288-0.291-0.403-0.498
			c-0.246-0.437-0.369-0.963-0.369-1.576s0.044-1.09,0.134-1.429c0.089-0.34,0.236-0.622,0.443-0.848
			c0.409-0.447,1.097-0.671,2.063-0.671c0.967,0,1.999,0.183,3.096,0.549v-0.938c0-1.043-0.432-1.662-1.291-1.854
			c-0.278-0.063-0.601-0.095-0.959-0.095c-0.823,0-1.679,0.162-2.563,0.49l-0.266-1.039c0.244-0.162,0.87-0.311,1.875-0.438
			c0.315-0.039,0.698-0.06,1.144-0.06c0.446,0,0.882,0.053,1.311,0.159s0.784,0.279,1.066,0.521
			c0.578,0.477,0.866,1.248,0.866,2.314V38.895L420.932,38.895z M419.72,38.043c-1.125-0.285-2.164-0.427-3.116-0.427
			c-0.587,0-0.977,0.169-1.169,0.507c-0.13,0.234-0.194,0.584-0.194,1.045c0,0.463,0.024,0.797,0.075,1.004
			c0.052,0.207,0.134,0.377,0.249,0.513c0.227,0.255,0.6,0.383,1.118,0.383c0.813,0,1.618-0.21,2.417-0.628
			c0.245-0.125,0.466-0.266,0.664-0.419C419.733,39.502,419.72,38.842,419.72,38.043z"/>
		<path fill="#5C656E" d="M427.281,34.4c-0.616,0-1.243,0.308-1.884,0.924v6.614h-1.196v-8.585h1.053l0.115,1.14
			c0.226-0.351,0.47-0.623,0.731-0.822c0.263-0.195,0.479-0.316,0.646-0.359c0.239-0.066,0.47-0.102,0.686-0.102
			s0.488,0.043,0.814,0.131l-0.107,1.146C427.895,34.43,427.607,34.4,427.281,34.4z"/>
		<path fill="#5C656E" d="M441.863,38.895c0,0.957,0.046,1.953,0.137,2.986l-1.067,0.086l-0.181-1.002
			c-0.61,0.49-1.418,0.832-2.424,1.023c-0.327,0.063-0.618,0.094-0.873,0.094s-0.48-0.012-0.676-0.035
			c-0.194-0.023-0.382-0.07-0.563-0.141s-0.348-0.167-0.501-0.293c-0.154-0.125-0.29-0.291-0.405-0.498
			c-0.244-0.437-0.368-0.963-0.368-1.576s0.046-1.09,0.135-1.429c0.09-0.34,0.236-0.622,0.443-0.848
			c0.409-0.447,1.099-0.671,2.063-0.671s1.998,0.183,3.095,0.549v-0.938c0-1.043-0.43-1.662-1.291-1.854
			c-0.279-0.063-0.6-0.095-0.96-0.095c-0.822,0-1.676,0.162-2.563,0.49l-0.266-1.039c0.244-0.162,0.869-0.311,1.875-0.438
			c0.317-0.039,0.698-0.06,1.145-0.06c0.443,0,0.881,0.053,1.309,0.159c0.429,0.106,0.785,0.279,1.068,0.521
			c0.576,0.477,0.864,1.248,0.864,2.314L441.863,38.895L441.863,38.895z M440.65,38.043c-1.125-0.285-2.164-0.427-3.116-0.427
			c-0.587,0-0.978,0.169-1.169,0.507c-0.131,0.234-0.194,0.584-0.194,1.045c0,0.463,0.024,0.797,0.076,1.004
			c0.051,0.207,0.134,0.377,0.248,0.513c0.228,0.255,0.6,0.383,1.117,0.383c0.813,0,1.619-0.21,2.419-0.628
			c0.244-0.125,0.466-0.266,0.663-0.419C440.664,39.502,440.65,38.842,440.65,38.043z"/>
	</g>
	<rect id="space-bar" x="168.358" y="19.334" fill="#6EAA77" width="0.411" height="35.313"/>
</g>
</svg>
