<?xml version="1.0" encoding="utf-8"?>
<!-- Generator: Adobe Illustrator 16.0.0, SVG Export Plug-In . SVG Version: 6.00 Build 0)  -->
<!DOCTYPE svg PUBLIC "-//W3C//DTD SVG 1.1//EN" "http://www.w3.org/Graphics/SVG/1.1/DTD/svg11.dtd">
<svg version="1.1" id="brand-altoqi" xmlns="http://www.w3.org/2000/svg" xmlns:xlink="http://www.w3.org/1999/xlink" x="0px"
	 y="0px" width="159.167px" height="57.667px" viewBox="0 0 159.167 57.667" enable-background="new 0 0 159.167 57.667"
	 xml:space="preserve">
<g>
	<g id="Brand">
		<g id="simbol">
			<polygon fill="#6EAA77" points="20.595,3.019 41.189,38.668 34.326,50.556 13.729,14.906 			"/>
			<polygon fill="#5A656C" points="0,38.668 11.464,18.831 18.312,30.752 6.865,50.556 			"/>
		</g>
		<g id="brand-name">
			<path fill="#5C656E" d="M110.09,28.752c-5.77,0-9.041,3.483-9.041,7.916v6.439c0,4.434,3.271,7.916,9.041,7.916
				c5.896,0,8.984-3.534,8.984-7.916v-6.439C119.074,32.286,115.988,28.752,110.09,28.752z M110.083,48.473
				c-5.542,0-5.21-3.688-5.21-8.53c0-4.871-0.332-8.64,5.21-8.64c5.543,0,5.168,3.77,5.168,8.64S115.627,48.473,110.083,48.473z"/>
			<path fill="#5C656E" d="M75.744,50.605h-4.479l-3.283-8.738H55.652l-3.237,8.738h-4.258L59.6,21.821h4.967L75.744,50.605z
				 M66.918,38.896L62.04,25.901h-0.399l-4.879,12.995H66.918L66.918,38.896z"/>
			<path fill="#5C656E" d="M82.813,50.616H78.82V21.833h3.992V50.616z"/>
			<path fill="#5C656E" d="M98.843,51.06c-3.735,0.13-5.854-0.466-6.919-1.397s-1.596-2.697-1.596-5.3v-13.04h-4.475v-2.617h4.475
				v-6.875h4.035v6.875h4.479v2.617h-4.479v13.262c0,1.537,0.295,2.564,0.887,3.082c0.592,0.519,1.789,0.776,3.594,0.776
				L98.843,51.06L98.843,51.06z"/>
			<path fill="#5C656E" d="M154.848,26h-3.991v-4.168h3.991V26z M154.848,50.616h-3.991V28.752h3.991V50.616z"/>
			<path fill="#5C656E" d="M145.547,41.331v-9.859c0-5.773-3.865-9.74-11.246-9.74c-7.221,0-11.317,3.898-11.317,9.74v9.859
				c0,5.844,4.097,9.741,11.317,9.741c2.239,0,4.152-0.364,5.734-1.036l2.761,2.762l2.176-2.187l-2.262-2.263
				C144.587,46.637,145.547,44.208,145.547,41.331z M136.475,42.112l-2.174,2.188l3.486,3.488c-0.918,0.329-2.063,0.506-3.493,0.506
				c-7.68,0-7.22-5.106-7.22-11.816c0-6.749-0.46-11.969,7.22-11.969s7.159,5.22,7.159,11.969c0,3.933,0.174,7.293-1.199,9.415
				L136.475,42.112z"/>
		</g>
	</g>
</g>
</svg>
